<svg width="94" height="36" viewBox="0 0 94 36" fill="none" xmlns="http://www.w3.org/2000/svg">
<path d="M42.79 21.0078C38.6311 21.0078 35.8377 23.8888 35.8377 28.1772C35.8377 32.4134 38.6964 35.3717 42.79 35.3717C45.0269 35.3717 46.9292 34.5077 48.1577 32.9391C48.3238 32.7277 48.4267 32.4736 48.4542 32.2062C48.4818 31.9387 48.4329 31.669 48.3133 31.4282C48.1937 31.1787 48.0057 30.9683 47.7713 30.8213C47.5369 30.6743 47.2656 30.5968 46.9889 30.5977H46.603C46.3658 30.5994 46.1324 30.658 45.9225 30.7687C45.7126 30.8793 45.5324 31.0386 45.3969 31.2334C44.8246 32.049 43.9476 32.4619 42.7872 32.4619C40.9352 32.4619 39.6023 31.3145 39.3152 29.511H49.4327L49.4719 29.264C49.5419 28.8013 49.5753 28.3338 49.5716 27.8659C49.5716 23.831 46.781 21.0078 42.79 21.0078ZM39.36 26.6934C39.7226 24.9924 40.9911 23.9121 42.6688 23.9121C44.5385 23.9121 45.903 25.0418 46.0857 26.6934H39.36Z" fill="white"/>
<path d="M57.3007 21.0078C53.1428 21.0078 50.3495 23.8888 50.3495 28.1772C50.3495 32.4134 53.2081 35.3717 57.3007 35.3717C59.5377 35.3717 61.4409 34.5077 62.6694 32.9391C62.8354 32.7276 62.9381 32.4735 62.9656 32.2061C62.9931 31.9388 62.9444 31.669 62.825 31.4282C62.7054 31.1787 62.5174 30.9683 62.283 30.8213C62.0486 30.6743 61.7773 30.5968 61.5006 30.5977H61.1138C60.8767 30.5995 60.6435 30.6581 60.4338 30.7688C60.2241 30.8794 60.044 31.0387 59.9086 31.2334C59.3363 32.049 58.4593 32.4619 57.2989 32.4619C55.4478 32.4619 54.115 31.3145 53.8279 29.511H63.9444L63.9827 29.264C64.0535 28.8014 64.0872 28.3339 64.0833 27.8659C64.0833 23.831 61.2946 21.0078 57.3007 21.0078ZM57.1796 23.9168C59.0502 23.9168 60.4147 25.0464 60.5965 26.698H53.8708C54.2361 24.997 55.5019 23.9168 57.1796 23.9168Z" fill="white"/>
<path d="M72.3705 21.0078C70.9519 21.0078 69.6097 21.5037 68.6534 22.3584C68.5784 22.0367 68.3969 21.7498 68.1384 21.5443C67.8799 21.3387 67.5595 21.2265 67.2292 21.2259H66.8079C66.4202 21.2264 66.0486 21.3806 65.7744 21.6548C65.5003 21.9289 65.346 22.3006 65.3456 22.6883V33.6866C65.346 34.0743 65.5003 34.446 65.7744 34.7201C66.0486 34.9943 66.4202 35.1485 66.8079 35.149H67.2292C67.6166 35.1492 67.9883 34.996 68.2629 34.7227C68.5375 34.4495 68.6927 34.0786 68.6944 33.6912V27.4027C68.6944 25.2338 69.8129 23.9904 71.7702 23.9904C73.708 23.9904 74.8199 25.2338 74.8199 27.4027V33.6912C74.8204 34.0789 74.9746 34.4506 75.2488 34.7248C75.5229 34.9989 75.8946 35.1531 76.2823 35.1536H76.6784C77.0661 35.1531 77.4378 34.9989 77.712 34.7248C77.9861 34.4506 78.1403 34.0789 78.1408 33.6912V26.9907C78.1352 23.3566 75.8713 21.0078 72.3705 21.0078Z" fill="white"/>
<path d="M91.9302 16.6523H91.4857C91.098 16.6528 90.7263 16.8071 90.4521 17.0812C90.178 17.3554 90.0237 17.727 90.0233 18.1147V22.6548C88.9169 21.6528 87.2755 21.0116 85.7144 21.0116C81.8827 21.0116 79.1014 24.0063 79.1014 28.1325C79.1014 32.2587 81.9339 35.3755 85.6901 35.3755C87.3939 35.3755 88.9579 34.7464 90.0233 33.6614V33.695C90.0237 34.0827 90.178 34.4544 90.4521 34.7285C90.7263 35.0027 91.098 35.1569 91.4857 35.1574H91.9302C92.3179 35.1569 92.6896 35.0027 92.9638 34.7285C93.2379 34.4544 93.3921 34.0827 93.3926 33.695V18.1147C93.3921 17.727 93.2379 17.3554 92.9638 17.0812C92.6896 16.8071 92.3179 16.6528 91.9302 16.6523ZM90.0233 28.181C90.0233 30.9464 88.1358 32.3929 86.2717 32.3929C84.4533 32.3929 82.5202 30.9016 82.5202 28.1325C82.5202 25.4155 84.4076 23.9942 86.2717 23.9942C88.1358 23.9942 90.0233 25.4323 90.0233 28.181Z" fill="white"/>
<path fill-rule="evenodd" clip-rule="evenodd" d="M20.5602 13.4753L14.0125 3.44167C12.9028 1.75311 11.169 0.573315 9.19099 0.160816C7.213 -0.251682 5.15214 0.136763 3.46003 1.24103C1.76792 2.3453 0.582578 4.07532 0.163745 6.05198C-0.255087 8.02865 0.126754 10.0907 1.22559 11.7864L13.8233 31.0911C16.6847 35.4718 21.839 36.9817 25.8468 33.2731C27.1806 32.0325 28.9478 28.9325 29.9152 27.4449C31.8996 24.4046 37.2841 15.7653 39.2675 12.724C34.1253 17.0367 25.7918 21.2812 21.0672 14.2582L20.6776 13.6607L20.5565 13.4743L20.5602 13.4753ZM21.0709 14.2582L20.6813 13.6607C20.8118 13.8639 20.9423 14.0615 21.0728 14.2554L21.0709 14.2582Z" fill="white"/>
<path d="M43.123 19.0897C42.8452 19.0899 42.57 19.0354 42.3132 18.9292C42.0564 18.8231 41.823 18.6673 41.6264 18.4709C41.4298 18.2745 41.2739 18.0413 41.1675 17.7846C41.0611 17.5279 41.0063 17.2527 41.0063 16.9749V13.5262C41.0065 13.2486 40.9519 12.9736 40.8457 12.717C40.7395 12.4604 40.5838 12.2273 40.3875 12.0309C40.1912 11.8345 39.9581 11.6787 39.7016 11.5724C39.4451 11.4661 39.1701 11.4114 38.8924 11.4114H35.4438C34.8832 11.4114 34.3455 11.1887 33.9491 10.7923C33.5526 10.3958 33.3299 9.85814 33.3299 9.2975C33.3299 8.73686 33.5526 8.19918 33.9491 7.80274C34.3455 7.40631 34.8832 7.18359 35.4438 7.18359H45.2304V16.9702C45.2317 17.5306 45.0104 18.0686 44.6153 18.466C44.2202 18.8634 43.6835 19.0877 43.123 19.0897Z" fill="#E5A330"/>
</svg>
