<svg width="39" height="31" viewBox="0 0 39 31" fill="none" xmlns="http://www.w3.org/2000/svg">
<path fill-rule="evenodd" clip-rule="evenodd" d="M17.6595 11.7622L12.1354 3.29719C11.1992 1.8726 9.73646 0.877242 8.06769 0.52923C6.39891 0.181219 4.66023 0.508938 3.23266 1.44057C1.80508 2.37221 0.805043 3.83177 0.451688 5.49942C0.0983319 7.16707 0.420479 8.90679 1.34754 10.3373L11.9758 26.6242C14.3899 30.32 18.7384 31.5939 22.1197 28.465C23.2449 27.4184 24.7358 24.803 25.5521 23.548C27.2262 20.9829 31.7689 13.6943 33.4423 11.1284C29.104 14.7668 22.0733 18.3479 18.0873 12.4227L17.7586 11.9187L17.6564 11.7614L17.6595 11.7622ZM18.0904 12.4227L17.7617 11.9187C17.8718 12.0901 17.9819 12.2568 18.092 12.4204L18.0904 12.4227Z" fill="#060089"/>
<path d="M36.6979 16.4984C36.4635 16.4986 36.2313 16.4526 36.0147 16.363C35.798 16.2735 35.6011 16.1421 35.4353 15.9764C35.2694 15.8107 35.1379 15.6139 35.0481 15.3973C34.9583 15.1808 34.9121 14.9486 34.9121 14.7142V11.8047C34.9122 11.5704 34.8662 11.3384 34.7766 11.122C34.687 10.9055 34.5557 10.7088 34.3901 10.5431C34.2244 10.3774 34.0278 10.246 33.8114 10.1563C33.595 10.0666 33.363 10.0205 33.1287 10.0205H30.2192C29.7462 10.0205 29.2926 9.83259 28.9581 9.49813C28.6237 9.16367 28.4358 8.71004 28.4358 8.23705C28.4358 7.76405 28.6237 7.31043 28.9581 6.97597C29.2926 6.64151 29.7462 6.45361 30.2192 6.45361H38.4759V14.7103C38.4769 15.1831 38.2903 15.6369 37.9569 15.9722C37.6235 16.3075 37.1707 16.4967 36.6979 16.4984Z" fill="#E5A330"/>
</svg>
